<svg width="25" height="25" viewBox="0 0 25 25" fill="none" xmlns="http://www.w3.org/2000/svg">
<g id="Frame">
<path id="Vector" fill-rule="evenodd" clip-rule="evenodd" d="M16.7661 15.3651L20.7061 19.3751C20.8826 19.5658 20.9779 19.8178 20.9718 20.0777C20.9657 20.3375 20.8586 20.5847 20.6734 20.767C20.4881 20.9493 20.2392 21.0523 19.9793 21.0541C19.7194 21.056 19.469 20.9566 19.2811 20.7771L15.3431 16.7711C13.8236 17.9157 11.926 18.4402 10.0344 18.2383C8.14274 18.0364 6.39853 17.1232 5.15489 15.6836C3.91126 14.2441 3.26114 12.3857 3.33616 10.4848C3.41119 8.58397 4.20576 6.78263 5.55899 5.44557C6.91222 4.10851 8.72298 3.33564 10.6246 3.28346C12.5263 3.23129 14.3767 3.9037 15.8012 5.16454C17.2257 6.42539 18.1178 8.18045 18.297 10.0744C18.4761 11.9683 17.9289 13.8595 16.7661 15.3651ZM10.8301 16.2801C12.2888 16.2801 13.6877 15.7006 14.7192 14.6691C15.7506 13.6377 16.3301 12.2387 16.3301 10.7801C16.3301 9.32137 15.7506 7.92242 14.7192 6.89097C13.6877 5.85952 12.2888 5.28006 10.8301 5.28006C9.37139 5.28006 7.97244 5.85952 6.94099 6.89097C5.90954 7.92242 5.33008 9.32137 5.33008 10.7801C5.33008 12.2387 5.90954 13.6377 6.94099 14.6691C7.97244 15.7006 9.37139 16.2801 10.8301 16.2801Z" fill="#091E42"/>
</g>
</svg>
